<?xml version="1.0" encoding="UTF-8"?>
<!-- Generator: Adobe Illustrator 16.0.0, SVG Export Plug-In . SVG Version: 6.00 Build 0)  -->
<!DOCTYPE svg PUBLIC "-//W3C//DTD SVG 1.1//EN" "http://www.w3.org/Graphics/SVG/1.1/DTD/svg11.dtd">
<svg version="1.1" id="Layer_1" xmlns="http://www.w3.org/2000/svg" xmlns:xlink="http://www.w3.org/1999/xlink" x="0px" y="0px" width="612px" height="792px" viewBox="0 0 612 792" enable-background="new 0 0 612 792" xml:space="preserve">
<g>
	<path fill="#0484A9" d="M282.236,28.394h-11.24c-0.678,0-1.229-0.551-1.229-1.229l-0.816-6.059   c-0.004-0.73,0.549-1.281,1.227-1.281h12.879c0.678,0,1.227,0.551,1.227,1.227l-0.82,6.168   C283.466,27.843,282.914,28.394,282.236,28.394z M270.177,20.644c-0.227,0-0.412,0.184-0.412,0.408l0.816,6.059   c0.004,0.281,0.188,0.465,0.414,0.465h11.24c0.227,0,0.412-0.184,0.412-0.41l0.82-6.166c-0.004-0.172-0.188-0.355-0.412-0.355   L270.177,20.644L270.177,20.644z"/>
	<path fill="#0484A9" d="M269.355,21.462c-0.201,0-0.377-0.15-0.404-0.355l-0.18-1.363c-0.004-0.279-0.188-0.463-0.414-0.463h-1.559   c-0.227,0-0.41-0.184-0.41-0.41c0-0.225,0.184-0.408,0.41-0.408h1.559c0.678,0,1.229,0.551,1.229,1.227l0.176,1.311   c0.031,0.225-0.127,0.43-0.352,0.459C269.392,21.46,269.375,21.462,269.355,21.462z"/>
	<g>
		<g>
			
				<rect x="269.327" y="23.922" transform="matrix(-0.0881 -0.9961 0.9961 -0.0881 273.1346 298.3419)" fill="#0484A9" width="7.606" height="0.449"/>
			<rect x="276.408" y="20.361" fill="#0484A9" width="0.449" height="7.576"/>
			
				<rect x="279.91" y="20.335" transform="matrix(-0.9954 -0.0957 0.0957 -0.9954 556.6713 74.989)" fill="#0484A9" width="0.449" height="7.612"/>
		</g>
		<rect x="270.046" y="25.134" fill="#0484A9" width="13.189" height="0.449"/>
		<rect x="269.546" y="22.685" fill="#0484A9" width="14.135" height="0.449"/>
	</g>
	<g>
		<path fill="#0484A9" d="M282.566,31.286h-11.838c-0.678,0-1.229-0.551-1.229-1.229l0.469-2.203    c0.047-0.219,0.26-0.363,0.486-0.312c0.221,0.049,0.361,0.266,0.314,0.486l-0.459,2.117c0.008,0.139,0.191,0.322,0.418,0.322    h11.838c0.227,0,0.41,0.182,0.41,0.408S282.792,31.286,282.566,31.286z"/>
		<g>
			
				<rect x="272.889" y="30.642" transform="matrix(-0.9863 -0.1648 0.1648 -0.9863 537.7015 107.2045)" fill="#0484A9" width="0.818" height="1.313"/>
			<path fill="#0484A9" d="M273.023,34.276c-0.725,0-1.314-0.59-1.314-1.314s0.59-1.314,1.314-1.314s1.316,0.59,1.316,1.314     S273.748,34.276,273.023,34.276z M273.023,32.349c-0.338,0-0.613,0.275-0.613,0.613s0.275,0.613,0.613,0.613     s0.615-0.275,0.615-0.613S273.361,32.349,273.023,32.349z"/>
		</g>
		<g>
			
				<rect x="279.946" y="30.877" transform="matrix(-0.1749 -0.9846 0.9846 -0.1749 298.8673 313.0381)" fill="#0484A9" width="1.315" height="0.819"/>
			<path fill="#0484A9" d="M280.869,34.276c-0.727,0-1.316-0.59-1.316-1.314s0.59-1.314,1.316-1.314c0.725,0,1.314,0.59,1.314,1.314     S281.593,34.276,280.869,34.276z M280.869,32.349c-0.34,0-0.615,0.275-0.615,0.613s0.275,0.613,0.615,0.613     c0.338,0,0.613-0.275,0.613-0.613S281.207,32.349,280.869,32.349z"/>
		</g>
	</g>
</g>
<g>
	<g>
		<path fill="#016893" d="M16.586,15.833c0.676,0,1.35,0,2.026,0c0,2.606-0.917,11.59,2.025,11.59c4.221,0-0.179-11.59,4.051-11.59    c0,4.726,0,9.452,0,14.174c-1.866-0.178-4.283,0.075-5.918-0.685C15.238,27.668,16.586,19.622,16.586,15.833z"/>
		<path fill="#016893" d="M26.04,15.833c10.305,0.665,8.1,4.621,8.1,14.174c-0.676,0-1.35,0-2.025,0    c-0.084-2.697,1.307-11.801-2.331-11.578c-2.511,0.136-1.719,9.08-1.719,11.578c-0.676,0-1.351,0-2.025,0    C26.04,25.286,26.04,20.56,26.04,15.833z"/>
	</g>
	<g>
		<path fill="#0484A9" d="M41.564,20.56c-2.226-6.659-6.138,3.5-3.079,6.423c1.991,1.908,2.531-2.036,3.416-2.036    c0-0.118,0,0.116,0,0c0.559,0,1.128,0,1.687,0c-0.433,3.311-3.628,6.985-6.826,3.47c-2.867-3.155-1.401-10.106,1.427-12.584    c3.183,0.202,5.399,1.604,5.399,5.063"/>
		<path fill="#0484A9" d="M54.727,15.833c0.896,0.117,1.804-0.105,2.7,0c0-0.116,0,0.117,0,0c1.034,0.063,4.39,0.339,4.39,1.688    c0.115,0,0.23,0,0.337,0c-0.337,0,0-0.221,0-0.34c7.848-4.438,6.749,7.583,6.749,12.825c-0.675,0-1.349,0-2.025,0    c0-2.688,1.245-11.789-2.331-11.578c-2.513,0.136-1.719,9.08-1.719,11.578c-0.674,0-1.352,0-2.026,0    c0-2.655,0.857-11.475-2.058-11.578c-2.92-0.119-1.991,8.966-1.991,11.578c-0.677,0-1.351,0-2.026,0    C54.727,25.286,54.727,20.56,54.727,15.833z"/>
		<path fill="#0484A9" d="M70.251,15.833c1.667,0.094,3.334,0.202,5.003,0.297c0.917,0.349,1.359,0.864,2.278,1.212    c0-0.113,0.481-0.38,0.481-0.496c7.851-3.776,6.417,8.068,6.417,13.161c-0.677,0-1.352,0-2.028,0    c0-2.633,0.875-11.538-2.043-11.588c-2.934-0.064-2.009,8.956-2.009,11.588c-0.674,0-1.345,0-2.024,0    c0-2.676,0.993-11.845-2.321-11.567c-2.521,0.201-1.728,9.047-1.728,11.567c-0.675,0-1.352,0-2.027,0    C70.251,25.286,70.251,20.56,70.251,15.833z"/>
		<path fill="#0484A9" d="M96.243,15.833c0.894,0.117,1.801-0.105,2.699,0c0-0.116,0,0.117,0,0    c6.993,0.674,5.397,8.141,5.397,14.174c-0.671,0-1.349,0-2.022,0c0-2.646,0.877-11.487-2.057-11.588    c-2.913-0.118-1.992,8.964-1.992,11.588c-0.676,0-1.353,0-2.025,0C96.243,25.286,96.243,20.56,96.243,15.833z"/>
		<path fill="#0484A9" d="M47.64,15.833c-2.976,2.963-4.599,14.905,2.299,13.815C54.071,28.998,55.793,16.347,47.64,15.833z     M50.677,27.646c-0.22,0.115-0.454,0.221-0.675,0.339c-3.942,0-3.807-8.134-1.69-10.127c0-0.108,0,0.117,0,0    C52.299,18.925,51.595,24.293,50.677,27.646z"/>
		<path fill="#0484A9" d="M88.818,15.833c-3.474,2.596-4.916,14.871,1.957,13.807C95.484,28.901,96.477,16.572,88.818,15.833z     M90.843,27.985c-3.967,0-2.986-8.004-1.691-10.127C93.097,19.082,92.899,24.883,90.843,27.985z"/>
	</g>
	<g>
		<g>
			<path fill="#B1BB36" d="M19.901,12.216c-0.224-0.762-0.59-2.314-0.815-3.089c1.784,0.156,2.817,1.661,2.36,2.69L19.901,12.216z"/>
			<path fill="#B1BB36" d="M32.924,9.824c2.371,1.041,0.437,3.297-1.503,3.297C31.768,12.099,32.574,10.85,32.924,9.824z"/>
			<path fill="#B1BB36" d="M18.448,35.471c0,0,2.141-1.974,0.959-3.384c-1.025,0.785-1.662,1.426-2.688,2.195c-0.192,0,0.214,0,0,0     L18.448,35.471z"/>
			<path fill="#B1BB36" d="M31.999,36.508c-0.349-0.82-1.465-1.879-0.821-3.17c0,0,0.355-0.702,0.53-0.702     c0.279,0.662,1.264,2.472,2.053,2.818L31.999,36.508z"/>
			<path fill="#B1BB36" d="M12.316,20.877c0,0-2.83,0.855-2.373,2.666c1.285-0.265,2.149-0.57,3.428-0.817     c0.171,0.085-0.198-0.092,0,0L12.316,20.877z"/>
		</g>
		<g>
			<path fill="#B1BB36" d="M148.454,17.917c0.469-0.004,1.129,0.304,1.682,0.816c0.557,0.514,1.013,1.227,1.132,1.997l0.025,0.162     h0.162c0.54,0,1.082,0,1.624,0h0.228l-0.042-0.227c-0.305-1.553-0.697-2.736-1.479-3.552c-0.784-0.812-1.938-1.209-3.659-1.23     l-0.042-0.001l-0.037,0.017c-1.081,0.482-1.828,0.958-2.317,1.446c-0.487,0.485-0.715,0.996-0.713,1.507     c0.004,0.696,0.403,1.34,0.965,1.959c0.844,0.929,2.08,1.832,3.1,2.73c1.025,0.896,1.799,1.795,1.788,2.61     c0,0.055-0.002,0.106-0.008,0.157c-0.064,0.561-0.237,0.939-0.453,1.167c-0.218,0.229-0.479,0.331-0.787,0.333     c-0.493,0.003-1.097-0.29-1.594-0.796c-0.495-0.505-0.882-1.213-0.983-2.009l-0.02-0.167h-0.167c-0.446,0-0.902,0-1.353,0     c0,0-0.386,0.079-0.429,0.115c-0.044,0.033-0.079,0.106-0.076,0.166l0.168,1c0.38,2.086,2.122,3.708,4.087,3.713h0.002     c0.788,0,1.607-0.268,2.364-0.869c0.674-0.551,1.172-1.162,1.27-2.038c0.081-0.279,0.119-0.556,0.119-0.826     c-0.001-0.809-0.327-1.554-0.785-2.132c-0.659-0.846-1.716-1.458-2.639-2.146c-0.926-0.686-1.696-1.427-1.859-2.487     c-0.028-0.17-0.038-0.321-0.038-0.456c0-0.373,0.092-0.608,0.221-0.749C148.04,17.986,148.219,17.918,148.454,17.917z"/>
			<path fill="#B1BB36" d="M119.019,15.642l-0.073-0.002l-0.058,0.045c-1.817,1.442-2.947,4.923-2.954,8.079     c0,1.588,0.29,3.091,0.961,4.222c0.663,1.129,1.74,1.875,3.229,1.875c0.004,0,0.01,0,0.013,0c0.155,0,0.317-0.007,0.487-0.024     c1.262-0.126,2.264-1.052,2.945-2.331c0.681-1.283,1.057-2.936,1.058-4.603c-0.001-1.723-0.402-3.464-1.305-4.817     C122.418,16.73,120.997,15.769,119.019,15.642z M119.311,17.669c0.014,0,0.027-0.005,0.04-0.011     c0.861,0.124,1.635,0.214,2.175,0.776c0.608,0.608,1.033,2.461,1.023,4.336c0,1.19-0.16,2.395-0.5,3.314     c-0.339,0.926-0.846,1.528-1.498,1.618l0,0c-0.105,0.018-0.206,0.026-0.304,0.026c-0.819-0.003-1.391-0.528-1.793-1.415     c-0.396-0.882-0.579-2.1-0.578-3.346c-0.001-1.16,0.156-2.342,0.427-3.317C118.553,18.736,118.921,18.01,119.311,17.669z"/>
			<path fill="#B1BB36" d="M128.754,15.642l-0.069-0.002l-0.059,0.041c-1.962,1.481-3.116,4.933-3.125,8.068     c0.001,1.584,0.303,3.09,0.981,4.219c0.676,1.126,1.762,1.874,3.25,1.874c0,0,0.007,0,0.011,0c0.194,0,0.393-0.013,0.6-0.039     c1.272-0.156,2.274-1.078,2.954-2.346c0.679-1.269,1.048-2.901,1.048-4.543c0-1.726-0.406-3.467-1.311-4.823     C132.136,16.733,130.719,15.77,128.754,15.642z M129.961,27.721c-0.82-0.003-1.392-0.527-1.794-1.41     c-0.394-0.876-0.578-2.091-0.578-3.336c0-1.166,0.16-2.359,0.435-3.337c0.254-0.917,0.627-1.64,1.018-1.967     c0.013-0.001,0.027-0.006,0.039-0.01c1.047,0.202,1.758,0.862,2.232,1.792c0.487,0.954,0.699,2.189,0.699,3.408     c0,1.209-0.207,2.406-0.539,3.308c-0.329,0.907-0.807,1.482-1.205,1.528l0,0C130.162,27.713,130.059,27.721,129.961,27.721z"/>
			<path fill="#B1BB36" d="M143.771,13.325c-0.01-0.103-0.019-0.199-0.028-0.272c-0.003-0.038-0.008-0.07-0.012-0.095     c-0.003-0.012-0.005-0.025-0.009-0.038c-0.008-0.105-0.063-0.207-0.136-0.267c-0.237-0.19-0.571-0.196-0.929-0.204     c-0.402,0-0.83,0.042-1.016,0.042h-0.183l-0.009,0.183c-0.035,0.939-0.292,1.499-0.663,1.886     c-0.558,0.584-1.447,0.792-2.342,1.122c-0.888,0.331-1.798,0.826-2.266,2.027c-0.62,1.574-0.868,3.28-0.866,5.154     c0,1.789,0.142,3.098,0.457,4.079c0.471,1.476,1.378,2.197,2.671,2.543c1.295,0.355,2.981,0.391,5.157,0.597l0.206,0.02v-0.208     c0-5.309,0-10.626,0-15.933c0.006-0.036,0.002-0.052,0.004-0.083C143.807,13.75,143.792,13.527,143.771,13.325z M141.491,27.476     c-0.455,0.011-0.909,0.061-1.339,0.06c-0.599,0-1.127-0.086-1.544-0.431c-0.837-0.676-1.212-2.36-1.205-4.143     c-0.004-2.038,0.469-4.214,1.033-5.109c0.826-0.209,1.644-0.389,3.183-0.398c0.013,0.091,0.029,0.233,0.044,0.392     c0.079,0.781,0.172,2.166,0.181,2.497l-0.001,0.074C141.758,23.593,141.586,24.376,141.491,27.476z"/>
			<path fill="#B1BB36" d="M114.971,26.406c0.007-3.413,0.007-6.829,0.007-10.238V15.98h-0.187c-0.681,0-1.329,0.141-1.827,0.583     c-1.122-0.014-2.063-0.542-3.43-0.582l-0.058-0.002l-0.048,0.029c-1.167,0.742-2.341,1.711-2.899,3.049     c-0.373,0.888-0.412,1.975-0.414,3.041c0,0.369,0.006,0.736,0.006,1.089c0,0.502-0.008,1.005-0.008,1.509     c0.001,1.269,0.045,2.514,0.391,3.615c0.342,1.094,1.007,2.042,2.206,2.657c0.574,0.293,1.146,0.396,1.708,0.396     c0.823-0.001,1.62-0.21,2.433-0.352c0,0.203,0,0.402,0,0.605c-0.31,0.54-0.713,1.31-1.534,1.798     c-0.458,0.277-1.118,0.381-1.719,0.438c-0.301,0.033-0.585,0.053-0.825,0.083c-0.218,0.033-0.397,0.058-0.547,0.142     c-0.055,0.006-0.11,0.021-0.165,0.058c-0.077,0.054-0.114,0.156-0.111,0.226c0.006,0.141,0.065,0.233,0.126,0.344     c0.098,0.164,0.234,0.345,0.341,0.522c0.109,0.17,0.181,0.342,0.177,0.414v0.196l0.197-0.008     c3.422-0.137,5.451-2.718,5.919-4.199c0.25-0.839,0.308-1.78,0.308-2.735C115.017,28.055,114.971,27.202,114.971,26.406     L114.971,26.406z M112.851,28.961c-0.323,0.326-0.619,0.418-0.999,0.472c-1.068,0.002-2.207-0.105-2.84-0.767     c-0.276-0.281-0.524-0.905-0.68-1.704c-0.157-0.802-0.237-1.78-0.236-2.789c-0.001-1.33,0.136-2.72,0.403-3.845     c0.244-1.055,0.628-1.875,1.043-2.187c0.026-0.001,0.054-0.011,0.079-0.025c0.51,0.028,1.074,0.037,1.575,0.131     c0.538,0.102,0.982,0.295,1.246,0.681c0.202,0.281,0.355,0.888,0.442,1.661c0.09,0.772,0.12,1.712,0.12,2.689     C113.004,25.424,112.856,27.744,112.851,28.961z"/>
		</g>
	</g>
</g>
</svg>